<svg width="156.9" height="40.44" viewBox="0 0 156.9 40.44" xmlns="http://www.w3.org/2000/svg">
<g id="svgGroup" stroke-linecap="round" fill-rule="evenodd" font-size="9pt" stroke="#ffffff" stroke-width="0.00" fill="#ffffff" style="stroke:#ffffff;stroke-width:0.00;fill:#ffffff">
<path d="M 29.22 23.16 L 29.22 17.22 L 0 17.22 L 0 40.44 L 29.22 40.44 L 29.22 34.5 L 5.94 34.5 L 5.94 23.16 L 29.22 23.16 Z M 29.22 5.94 L 29.22 0 L 0 0 L 0 5.94 L 29.22 5.94 Z" id="0" vector-effect="non-scaling-stroke"/>
<path d="M 32.82 18.24 L 32.82 24.18 L 47.16 24.18 L 47.16 18.24 L 32.82 18.24 Z" id="1" vector-effect="non-scaling-stroke"/>
<path d="M 50.76 40.44 L 56.34 40.44 L 56.34 23.04 C 56.34 19.98 58.8 17.52 61.8 17.52 C 64.86 17.52 67.32 19.98 67.32 23.04 L 67.32 40.44 L 72.9 40.44 L 72.9 23.04 C 72.9 19.98 75.36 17.52 78.36 17.52 C 81.42 17.52 83.88 19.98 83.88 23.04 L 83.88 40.44 L 89.46 40.44 L 89.46 23.04 C 89.46 16.92 84.48 11.94 78.36 11.94 A 11.001 11.001 0 0 0 72.017 13.939 A 11.308 11.308 0 0 0 70.08 15.66 A 10.911 10.911 0 0 0 63.322 12.043 A 11.25 11.25 0 0 0 61.8 11.94 C 55.68 11.94 50.76 16.92 50.76 23.04 L 50.76 40.44 Z" id="2" vector-effect="non-scaling-stroke"/>
<path d="M 107.28 40.44 L 107.28 34.86 C 102.48 34.86 98.64 30.96 98.64 26.22 C 98.64 21.42 102.48 17.52 107.28 17.52 C 112.08 17.52 115.92 21.42 115.92 26.22 L 115.92 37.5 L 115.92 40.44 L 121.5 40.44 L 121.5 26.22 C 121.5 18.36 115.14 11.94 107.28 11.94 C 99.42 11.94 93.06 18.36 93.06 26.22 C 93.06 34.08 99.42 40.44 107.28 40.44 Z" id="3" vector-effect="non-scaling-stroke"/>
<path d="M 130.68 4.62 L 125.1 4.62 L 125.1 28.98 C 125.1 35.28 130.2 40.44 136.5 40.44 L 139.2 40.44 L 139.2 34.86 L 136.5 34.86 C 133.26 34.86 130.68 32.22 130.68 28.98 L 130.68 4.62 Z" id="4" vector-effect="non-scaling-stroke"/>
<path d="M 148.38 4.62 L 142.8 4.62 L 142.8 28.98 C 142.8 35.28 147.9 40.44 154.2 40.44 L 156.9 40.44 L 156.9 34.86 L 154.2 34.86 C 150.96 34.86 148.38 32.22 148.38 28.98 L 148.38 4.62 Z" id="5" vector-effect="non-scaling-stroke"/>
</g></svg>